<svg width="24" height="24" viewBox="0 0 24 24" fill="none" xmlns="http://www.w3.org/2000/svg">
<g clip-path="url(#clip0_338_1291)">
<path d="M12 2C17.5228 2 22 6.47715 22 12C22 17.5228 17.5228 22 12 22H2L4.92893 19.0711C3.11929 17.2614 2 14.7614 2 12C2 6.47715 6.47715 2 12 2ZM16 13H8C8 15.2091 9.79086 17 12 17C14.2091 17 16 15.2091 16 13Z" fill="#FFF586"/>
<path d="M4 10C4 4.47715 8.47715 0 14 0C19.5228 0 24 4.47715 24 10C24 15.5228 19.5228 20 14 20H4L6.92893 17.0711C5.11929 15.2614 4 12.7614 4 10ZM8.82843 18H14C18.4183 18 22 14.4183 22 10C22 5.58172 18.4183 2 14 2C9.58172 2 6 5.58172 6 10C6 12.1524 6.85124 14.1649 8.34315 15.6569L9.75736 17.0711L8.82843 18ZM10 11H18C18 13.2091 16.2091 15 14 15C11.7909 15 10 13.2091 10 11Z" fill="#212121"/>
</g>
<defs>
<clipPath id="clip0_338_1291">
<rect width="24" height="24" fill="white"/>
</clipPath>
</defs>
</svg>
