<svg width="22" height="22" viewBox="0 0 22 22" fill="none" xmlns="http://www.w3.org/2000/svg">
<path d="M11.9167 19.25C11.9167 19.4932 11.8201 19.7263 11.6482 19.8982C11.4763 20.0701 11.2431 20.1667 11 20.1667H7.33333C6.1182 20.1653 4.95326 19.6819 4.09403 18.8227C3.23481 17.9634 2.75146 16.7985 2.75 15.5834V6.41671C2.75146 5.20158 3.23481 4.03664 4.09403 3.17741C4.95326 2.31818 6.1182 1.83483 7.33333 1.83337H11C11.2431 1.83337 11.4763 1.92995 11.6482 2.10186C11.8201 2.27377 11.9167 2.50693 11.9167 2.75004C11.9167 2.99316 11.8201 3.22631 11.6482 3.39822C11.4763 3.57013 11.2431 3.66671 11 3.66671H7.33333C6.60399 3.66671 5.90451 3.95644 5.38879 4.47216C4.87306 4.98789 4.58333 5.68736 4.58333 6.41671V15.5834C4.58333 16.3127 4.87306 17.0122 5.38879 17.5279C5.90451 18.0436 6.60399 18.3334 7.33333 18.3334H11C11.2431 18.3334 11.4763 18.43 11.6482 18.6019C11.8201 18.7738 11.9167 19.0069 11.9167 19.25ZM18.9814 10.352L15.3147 6.68529C15.2302 6.59774 15.129 6.52791 15.0172 6.47986C14.9054 6.43182 14.7851 6.40654 14.6634 6.40548C14.5417 6.40442 14.4209 6.42761 14.3083 6.4737C14.1956 6.51979 14.0933 6.58786 14.0072 6.67393C13.9212 6.76 13.8531 6.86234 13.807 6.975C13.7609 7.08765 13.7377 7.20836 13.7388 7.33008C13.7398 7.45179 13.7651 7.57207 13.8132 7.68391C13.8612 7.79575 13.931 7.8969 14.0186 7.98146L16.1205 10.0834H9.16667C8.92355 10.0834 8.69039 10.18 8.51849 10.3519C8.34658 10.5238 8.25 10.7569 8.25 11C8.25 11.2432 8.34658 11.4763 8.51849 11.6482C8.69039 11.8201 8.92355 11.9167 9.16667 11.9167H16.1205L14.0186 14.0186C13.931 14.1032 13.8612 14.2043 13.8132 14.3162C13.7651 14.428 13.7398 14.5483 13.7388 14.67C13.7377 14.7917 13.7609 14.9124 13.807 15.0251C13.8531 15.1377 13.9212 15.2401 14.0072 15.3262C14.0933 15.4122 14.1956 15.4803 14.3083 15.5264C14.4209 15.5725 14.5417 15.5957 14.6634 15.5946C14.7851 15.5935 14.9054 15.5683 15.0172 15.5202C15.129 15.4722 15.2302 15.4023 15.3147 15.3148L18.9814 11.6481C19.1533 11.4762 19.2498 11.2431 19.2498 11C19.2498 10.757 19.1533 10.5239 18.9814 10.352Z" fill="#074456"/>
</svg>
