<svg width="170" height="101" viewBox="0 0 170 101" fill="none" xmlns="http://www.w3.org/2000/svg">
<g filter="url(#filter0_d_338_943)">
<mask id="path-1-inside-1_338_943" fill="white">
<path d="M162 66C162 79.2548 151.255 90 138 90L32 90C18.7452 90 8 79.2548 8 66V5L138 5C151.255 5 162 15.7452 162 29V66Z"/>
</mask>
<path d="M162 66C162 79.2548 151.255 90 138 90L32 90C18.7452 90 8 79.2548 8 66V5L138 5C151.255 5 162 15.7452 162 29V66Z" fill="white"/>
<path d="M162 90L8 90L162 90ZM6.5 3.5L136.5 3.5C150.583 3.5 162 14.9167 162 29C162 16.5736 151.255 6.5 138 6.5L9.5 6.5L6.5 3.5ZM162 5V90V5ZM32 90C17.9167 90 6.5 78.5833 6.5 64.5V3.5L9.5 6.5V66C9.5 79.2548 19.5736 90 32 90Z" fill="#074456" mask="url(#path-1-inside-1_338_943)"/>
</g>
<defs>
<filter id="filter0_d_338_943" x="0" y="0" width="170" height="101" filterUnits="userSpaceOnUse" color-interpolation-filters="sRGB">
<feFlood flood-opacity="0" result="BackgroundImageFix"/>
<feColorMatrix in="SourceAlpha" type="matrix" values="0 0 0 0 0 0 0 0 0 0 0 0 0 0 0 0 0 0 127 0" result="hardAlpha"/>
<feOffset dy="3"/>
<feGaussianBlur stdDeviation="4"/>
<feComposite in2="hardAlpha" operator="out"/>
<feColorMatrix type="matrix" values="0 0 0 0 0.895833 0 0 0 0 0.895833 0 0 0 0 0.895833 0 0 0 0.15 0"/>
<feBlend mode="normal" in2="BackgroundImageFix" result="effect1_dropShadow_338_943"/>
<feBlend mode="normal" in="SourceGraphic" in2="effect1_dropShadow_338_943" result="shape"/>
</filter>
</defs>
</svg>
