<svg width="170" height="101" viewBox="0 0 170 101" fill="none" xmlns="http://www.w3.org/2000/svg">
<g filter="url(#filter0_d_377_504)">
<mask id="path-1-inside-1_377_504" fill="white">
<path d="M162 66C162 79.2548 151.255 90 138 90L8 90V29C8 15.7452 18.7452 5 32 5L138 5C151.255 5 162 15.7452 162 29V66Z"/>
</mask>
<path d="M162 66C162 79.2548 151.255 90 138 90L8 90V29C8 15.7452 18.7452 5 32 5L138 5C151.255 5 162 15.7452 162 29V66Z" fill="white"/>
<path d="M162 90L8 90L162 90ZM6.5 29C6.5 14.9167 17.9167 3.5 32 3.5L136.5 3.5C150.583 3.5 162 14.9167 162 29C162 16.5736 151.255 6.5 138 6.5L32 6.5C19.5736 6.5 9.5 16.5736 9.5 29H6.5ZM162 5V90V5ZM6.5 90V29C6.5 14.9167 17.9167 3.5 32 3.5V6.5C19.5736 6.5 9.5 16.5736 9.5 29V90H6.5Z" fill="#074456" mask="url(#path-1-inside-1_377_504)"/>
</g>
<defs>
<filter id="filter0_d_377_504" x="0" y="0" width="170" height="101" filterUnits="userSpaceOnUse" color-interpolation-filters="sRGB">
<feFlood flood-opacity="0" result="BackgroundImageFix"/>
<feColorMatrix in="SourceAlpha" type="matrix" values="0 0 0 0 0 0 0 0 0 0 0 0 0 0 0 0 0 0 127 0" result="hardAlpha"/>
<feOffset dy="3"/>
<feGaussianBlur stdDeviation="4"/>
<feComposite in2="hardAlpha" operator="out"/>
<feColorMatrix type="matrix" values="0 0 0 0 0.895833 0 0 0 0 0.895833 0 0 0 0 0.895833 0 0 0 0.15 0"/>
<feBlend mode="normal" in2="BackgroundImageFix" result="effect1_dropShadow_377_504"/>
<feBlend mode="normal" in="SourceGraphic" in2="effect1_dropShadow_377_504" result="shape"/>
</filter>
</defs>
</svg>
