<svg width="170" height="101" viewBox="0 0 170 101" fill="none" xmlns="http://www.w3.org/2000/svg">
<g filter="url(#filter0_d_338_940)">
<mask id="path-1-inside-1_338_940" fill="white">
<path d="M8 29C8 15.7452 18.7452 5 32 5H138C151.255 5 162 15.7452 162 29V90H32C18.7452 90 8 79.2548 8 66V29Z"/>
</mask>
<path d="M8 29C8 15.7452 18.7452 5 32 5H138C151.255 5 162 15.7452 162 29V90H32C18.7452 90 8 79.2548 8 66V29Z" fill="white"/>
<path d="M8 5H162H8ZM163.5 91.5H33.5C19.4167 91.5 8 80.0833 8 66C8 78.4264 18.7452 88.5 32 88.5H160.5L163.5 91.5ZM8 90V5V90ZM138 5C152.083 5 163.5 16.4167 163.5 30.5V91.5L160.5 88.5V29C160.5 15.7452 150.426 5 138 5Z" fill="#074456" mask="url(#path-1-inside-1_338_940)"/>
</g>
<defs>
<filter id="filter0_d_338_940" x="0" y="0" width="170" height="101" filterUnits="userSpaceOnUse" color-interpolation-filters="sRGB">
<feFlood flood-opacity="0" result="BackgroundImageFix"/>
<feColorMatrix in="SourceAlpha" type="matrix" values="0 0 0 0 0 0 0 0 0 0 0 0 0 0 0 0 0 0 127 0" result="hardAlpha"/>
<feOffset dy="3"/>
<feGaussianBlur stdDeviation="4"/>
<feComposite in2="hardAlpha" operator="out"/>
<feColorMatrix type="matrix" values="0 0 0 0 0.895833 0 0 0 0 0.895833 0 0 0 0 0.895833 0 0 0 0.15 0"/>
<feBlend mode="normal" in2="BackgroundImageFix" result="effect1_dropShadow_338_940"/>
<feBlend mode="normal" in="SourceGraphic" in2="effect1_dropShadow_338_940" result="shape"/>
</filter>
</defs>
</svg>
