<svg width="170" height="101" viewBox="0 0 170 101" fill="none" xmlns="http://www.w3.org/2000/svg">
<g filter="url(#filter0_d_338_962)">
<mask id="path-1-inside-1_338_962" fill="white">
<path d="M8 29C8 15.7452 18.7452 5 32 5H162V66C162 79.2548 151.255 90 138 90H32C18.7452 90 8 79.2548 8 66V29Z"/>
</mask>
<path d="M8 29C8 15.7452 18.7452 5 32 5H162V66C162 79.2548 151.255 90 138 90H32C18.7452 90 8 79.2548 8 66V29Z" fill="white"/>
<path d="M8 5H162H8ZM163.5 66C163.5 80.0833 152.083 91.5 138 91.5H33.5C19.4167 91.5 8 80.0833 8 66C8 78.4264 18.7452 88.5 32 88.5H138C150.426 88.5 160.5 78.4264 160.5 66H163.5ZM8 90V5V90ZM163.5 5V66C163.5 80.0833 152.083 91.5 138 91.5V88.5C150.426 88.5 160.5 78.4264 160.5 66V5H163.5Z" fill="#FFF586" mask="url(#path-1-inside-1_338_962)"/>
</g>
<defs>
<filter id="filter0_d_338_962" x="0" y="0" width="170" height="101" filterUnits="userSpaceOnUse" color-interpolation-filters="sRGB">
<feFlood flood-opacity="0" result="BackgroundImageFix"/>
<feColorMatrix in="SourceAlpha" type="matrix" values="0 0 0 0 0 0 0 0 0 0 0 0 0 0 0 0 0 0 127 0" result="hardAlpha"/>
<feOffset dy="3"/>
<feGaussianBlur stdDeviation="4"/>
<feComposite in2="hardAlpha" operator="out"/>
<feColorMatrix type="matrix" values="0 0 0 0 0.895833 0 0 0 0 0.895833 0 0 0 0 0.895833 0 0 0 0.15 0"/>
<feBlend mode="normal" in2="BackgroundImageFix" result="effect1_dropShadow_338_962"/>
<feBlend mode="normal" in="SourceGraphic" in2="effect1_dropShadow_338_962" result="shape"/>
</filter>
</defs>
</svg>
