<svg width="24" height="24" viewBox="0 0 24 24" fill="none" xmlns="http://www.w3.org/2000/svg">
<g clip-path="url(#clip0_0_579)">
<rect width="24" height="24" fill="white"/>
<path d="M21.34 15.49L20.34 13.83C20.13 13.46 19.94 12.76 19.94 12.35V9.82004C19.9388 8.70407 19.6217 7.61125 19.0253 6.66801C18.4289 5.72477 17.5776 4.96966 16.57 4.49004C16.3128 4.03338 15.9377 3.65418 15.4838 3.39207C15.03 3.12997 14.5141 2.99457 13.99 3.00004C12.9 3.00004 11.92 3.59004 11.4 4.52004C9.45 5.49004 8.1 7.50004 8.1 9.82004V12.35C8.1 12.76 7.91 13.46 7.7 13.82L6.69 15.49C6.29 16.16 6.2 16.9 6.45 17.58C6.69 18.25 7.26 18.77 8 19.02C9.94 19.68 11.98 20 14.02 20C16.06 20 18.1 19.68 20.04 19.03C20.74 18.8 21.28 18.27 21.54 17.58C21.8 16.89 21.73 16.13 21.34 15.49ZM16.83 21.01C16.6197 21.5922 16.2353 22.0955 15.729 22.4515C15.2226 22.8076 14.619 22.9991 14 23C13.21 23 12.43 22.68 11.88 22.11C11.56 21.81 11.32 21.41 11.18 21C11.31 21.02 11.44 21.03 11.58 21.05C11.81 21.08 12.05 21.11 12.29 21.13C12.86 21.18 13.44 21.21 14.02 21.21C14.59 21.21 15.16 21.18 15.72 21.13C15.93 21.11 16.14 21.1 16.34 21.07L16.83 21.01Z" fill="#FFF586"/>
<path d="M12.02 2.91003C8.71 2.91003 6.02 5.60003 6.02 8.91003V11.8C6.02 12.41 5.76 13.34 5.45 13.86L4.3 15.77C3.59 16.95 4.08 18.26 5.38 18.7C9.69 20.14 14.34 20.14 18.65 18.7C19.86 18.3 20.39 16.87 19.73 15.77L18.58 13.86C18.28 13.34 18.02 12.41 18.02 11.8V8.91003C18.02 5.61003 15.32 2.91003 12.02 2.91003Z" stroke="black" stroke-width="1.5" stroke-miterlimit="10" stroke-linecap="round"/>
<path d="M13.87 3.19994C12.6607 2.85553 11.3793 2.85553 10.17 3.19994C10.46 2.45994 11.18 1.93994 12.02 1.93994C12.86 1.93994 13.58 2.45994 13.87 3.19994Z" stroke="black" stroke-width="1.5" stroke-miterlimit="10" stroke-linecap="round" stroke-linejoin="round"/>
<path d="M15.02 19.0601C15.02 20.7101 13.67 22.0601 12.02 22.0601C11.2 22.0601 10.44 21.7201 9.9 21.1801C9.33816 20.6174 9.0218 19.8552 9.02 19.0601" stroke="black" stroke-width="1.5" stroke-miterlimit="10"/>
</g>
<defs>
<clipPath id="clip0_0_579">
<rect width="24" height="24" fill="white"/>
</clipPath>
</defs>
</svg>
