<svg width="24" height="24" viewBox="0 0 24 24" fill="none" xmlns="http://www.w3.org/2000/svg">
<path d="M5.15973 16.56C2.73973 18.18 2.73973 20.82 5.15973 22.43C7.90973 24.27 12.4197 24.27 15.1697 22.43C17.5897 20.81 17.5897 18.17 15.1697 16.56C12.4297 14.73 7.91973 14.73 5.15973 16.56Z" fill="#FFF586"/>
<path d="M10.1596 12.87C10.0596 12.86 9.93957 12.86 9.82957 12.87C7.44957 12.79 5.55957 10.84 5.55957 8.44C5.55957 5.99 7.53957 4 9.99957 4C12.4496 4 14.4396 5.99 14.4396 8.44C14.4296 10.84 12.5396 12.79 10.1596 12.87Z" fill="#FFF586"/>
<g clip-path="url(#clip0_2_474)">
<path d="M12.16 10.87C12.06 10.86 11.94 10.86 11.83 10.87C9.45 10.79 7.56 8.84 7.56 6.44C7.56 3.99 9.54 2 12 2C14.45 2 16.44 3.99 16.44 6.44C16.43 8.84 14.54 10.79 12.16 10.87Z" stroke="black" stroke-width="1.5" stroke-linecap="round" stroke-linejoin="round"/>
<path d="M7.15997 14.56C4.73997 16.18 4.73997 18.82 7.15997 20.43C9.90997 22.27 14.42 22.27 17.17 20.43C19.59 18.81 19.59 16.17 17.17 14.56C14.43 12.73 9.91997 12.73 7.15997 14.56Z" stroke="black" stroke-width="1.5" stroke-linecap="round" stroke-linejoin="round"/>
</g>
<defs>
<clipPath id="clip0_2_474">
<rect width="24" height="24" fill="white"/>
</clipPath>
</defs>
</svg>
