<svg width="24" height="24" viewBox="0 0 24 24" fill="none" xmlns="http://www.w3.org/2000/svg">
<g clip-path="url(#clip0_2_249)">
<path d="M13.78 4H6.22C2.44 4 1.5 5.01 1.5 9.04V20.3C1.5 22.96 2.96 23.59 4.73 21.69L4.74 21.68C5.56 20.81 6.81 20.88 7.52 21.83L8.53 23.18C9.34 24.25 10.65 24.25 11.46 23.18L12.47 21.83C13.19 20.87 14.44 20.8 15.26 21.68C17.04 23.58 18.49 22.95 18.49 20.29V9.04C18.5 5.01 17.56 4 13.78 4ZM5.78 14C5.23 14 4.78 13.55 4.78 13C4.78 12.45 5.23 12 5.78 12C6.33 12 6.78 12.45 6.78 13C6.78 13.55 6.33 14 5.78 14ZM5.78 10C5.23 10 4.78 9.55 4.78 9C4.78 8.45 5.23 8 5.78 8C6.33 8 6.78 8.45 6.78 9C6.78 9.55 6.33 10 5.78 10ZM14.23 13.75H8.73C8.32 13.75 7.98 13.41 7.98 13C7.98 12.59 8.32 12.25 8.73 12.25H14.23C14.64 12.25 14.98 12.59 14.98 13C14.98 13.41 14.64 13.75 14.23 13.75ZM14.23 9.75H8.73C8.32 9.75 7.98 9.41 7.98 9C7.98 8.59 8.32 8.25 8.73 8.25H14.23C14.64 8.25 14.98 8.59 14.98 9C14.98 9.41 14.64 9.75 14.23 9.75Z" fill="#FFF586"/>
<path d="M6.73 19.7C7.55 18.82 8.8 18.89 9.52 19.85L10.53 21.2C11.34 22.27 12.65 22.27 13.46 21.2L14.47 19.85C15.19 18.89 16.44 18.82 17.26 19.7C19.04 21.6 20.49 20.97 20.49 18.31V7.04C20.5 3.01 19.56 2 15.78 2H8.22C4.44 2 3.5 3.01 3.5 7.04V18.3C3.5 20.97 4.96 21.59 6.73 19.7Z" stroke="black" stroke-width="1.5" stroke-linecap="round" stroke-linejoin="round"/>
<path d="M8.09599 11H8.10599" stroke="black" stroke-width="2" stroke-linecap="round" stroke-linejoin="round"/>
<path d="M10.898 11H16.398" stroke="black" stroke-width="1.5" stroke-linecap="round" stroke-linejoin="round"/>
<path d="M8.09599 7H8.10599" stroke="black" stroke-width="2" stroke-linecap="round" stroke-linejoin="round"/>
<path d="M10.898 7H16.398" stroke="black" stroke-width="1.5" stroke-linecap="round" stroke-linejoin="round"/>
</g>
<defs>
<clipPath id="clip0_2_249">
<rect width="24" height="24" fill="white"/>
</clipPath>
</defs>
</svg>
