<svg width="24" height="24" viewBox="0 0 24 24" fill="none" xmlns="http://www.w3.org/2000/svg">
<g clip-path="url(#clip0_2_291)">
<path fill-rule="evenodd" clip-rule="evenodd" d="M21.1009 8.00353C21.0442 7.99996 20.9825 7.99998 20.9186 8L20.9026 8.00001H18.3941C16.3264 8.00001 14.5572 9.62757 14.5572 11.75C14.5572 13.8724 16.3264 15.5 18.3941 15.5H20.9026H20.9186C20.9825 15.5 21.0442 15.5001 21.1009 15.4965C21.9408 15.4434 22.6835 14.7862 22.746 13.8682C22.7501 13.808 22.75 13.7431 22.75 13.683V13.6667V9.83334V9.81702C22.75 9.75688 22.7501 9.69199 22.746 9.6318C22.6835 8.71381 21.9408 8.05657 21.1009 8.00353ZM18.1717 12.75C18.704 12.75 19.1355 12.3023 19.1355 11.75C19.1355 11.1977 18.704 10.75 18.1717 10.75C17.6394 10.75 17.2078 11.1977 17.2078 11.75C17.2078 12.3023 17.6394 12.75 18.1717 12.75Z" fill="#FFF586"/>
<path fill-rule="evenodd" clip-rule="evenodd" d="M20.9179 17C21.067 16.9961 21.1799 17.1342 21.1394 17.2778C20.9387 17.9902 20.62 18.5975 20.1088 19.1088C19.3604 19.8571 18.4114 20.1892 17.239 20.3469C16.0998 20.5 14.6442 20.5 12.8064 20.5H10.6936C8.85583 20.5 7.40019 20.5 6.26098 20.3469C5.08856 20.1892 4.13961 19.8571 3.39124 19.1088C2.64288 18.3604 2.31076 17.4114 2.15314 16.239C1.99997 15.0998 1.99998 13.6442 2 11.8064V11.6936C1.99998 9.85583 1.99997 8.40019 2.15314 7.26098C2.31076 6.08856 2.64288 5.13961 3.39124 4.39124C4.13961 3.64288 5.08856 3.31076 6.26098 3.15314C7.40019 2.99997 8.85582 2.99998 10.6936 3H12.8064C14.6442 2.99998 16.0998 2.99997 17.239 3.15314C18.4114 3.31076 19.3604 3.64288 20.1088 4.39124C20.62 4.90252 20.9386 5.50974 21.1394 6.22218C21.1799 6.36575 21.067 6.50387 20.9179 6.5L18.394 6.50001C15.5574 6.50001 13.0571 8.74091 13.0571 11.75C13.0571 14.7591 15.5574 17 18.394 17H20.9179ZM7 15.5C6.58579 15.5 6.25 15.1642 6.25 14.75V8.75C6.25 8.33579 6.58579 8 7 8C7.41421 8 7.75 8.33579 7.75 8.75V14.75C7.75 15.1642 7.41421 15.5 7 15.5Z" fill="#FFF586"/>
<path d="M21.9029 7.50001L21.9026 7.50001L19.3941 7.50001C17.5827 7.50001 16.0572 8.92313 16.0572 10.75C16.0572 12.5769 17.5827 14 19.3941 14H21.9026H21.9186C21.9871 14 22.0316 13.9999 22.0692 13.9975L22.0693 13.9975C22.6763 13.9591 23.2028 13.4849 23.2471 12.8342C23.2499 12.7943 23.25 12.7474 23.25 12.683V12.6667V8.83334V8.81702C23.25 8.75261 23.2499 8.70572 23.2471 8.66578L23.2471 8.66577C23.2028 8.01511 22.6763 7.54091 22.0695 7.50254L21.9029 7.50001ZM21.9029 7.50001L21.9187 7.5C21.9188 7.5 21.9188 7.5 21.9188 7.5M21.9029 7.50001L21.9188 7.5M21.9188 7.5C21.9189 7.5 21.9189 7.5 21.9189 7.5M21.9188 7.5L21.9189 7.5M21.9189 7.5C21.9864 7.49998 22.0315 7.50016 22.0694 7.50254L21.9189 7.5ZM19.1717 12.25C19.9973 12.25 20.6355 11.5609 20.6355 10.75C20.6355 9.93909 19.9973 9.25 19.1717 9.25C18.3461 9.25 17.7078 9.93903 17.7078 10.75C17.7078 11.561 18.3461 12.25 19.1717 12.25Z" stroke="black"/>
<path d="M21.5424 16.5C21.3626 16.9872 21.1106 17.3998 20.7553 17.7552C20.1153 18.3951 19.2895 18.7011 18.1723 18.8514C17.074 18.999 15.6575 19 13.8064 19H11.6936C9.84257 19 8.42599 18.999 7.32763 18.8514L21.5424 16.5ZM21.5424 16.5H19.394C16.3028 16.5 13.5571 14.0563 13.5571 10.75C13.5571 7.44371 16.3028 5.00001 19.394 5.00001L21.5424 5C21.3626 4.51274 21.1106 4.10024 20.7553 3.7448C20.1153 3.10489 19.2895 2.79887 18.1724 2.64868L18.239 2.15314L18.1724 2.64868C17.074 2.50101 15.6575 2.49998 13.8064 2.5H11.6936C9.84252 2.49998 8.42595 2.50101 7.32761 2.64868L7.3276 2.64868C6.21048 2.79887 5.38471 3.10489 4.7448 3.74479C4.74479 3.74479 4.74479 3.74479 4.74479 3.7448M21.5424 16.5L4.39124 18.1088L4.7448 17.7553M4.74479 3.7448L4.39124 3.39124C3.64288 4.13961 3.31076 5.08856 3.15314 6.26098C2.99997 7.40019 2.99998 8.85583 3 10.6936V10.8064C2.99998 12.6442 2.99997 14.0998 3.15314 15.239M4.74479 3.7448C4.10489 4.38471 3.79887 5.21048 3.64868 6.3276L3.64868 6.32761C3.50101 7.42595 3.49998 8.84253 3.5 10.6936V10.8064C3.49998 12.6575 3.50101 14.074 3.64868 15.1724L3.15314 15.239M4.74479 3.7448L3.15314 15.239M3.15314 15.239L3.64868 15.1724C3.79887 16.2895 4.10489 17.1153 4.74478 17.7552C4.74479 17.7552 4.74479 17.7552 4.7448 17.7553M4.7448 17.7553C5.3847 18.3951 6.21046 18.7011 7.32758 18.8514L4.7448 17.7553ZM6.75 13.75C6.75 14.4403 7.30964 15 8 15C8.69036 15 9.25 14.4403 9.25 13.75V7.75C9.25 7.05965 8.69035 6.5 8 6.5C7.30965 6.5 6.75 7.05965 6.75 7.75V13.75Z" stroke="black"/>
</g>
<defs>
<clipPath id="clip0_2_291">
<rect width="24" height="24" fill="white"/>
</clipPath>
</defs>
</svg>
