<svg width="24" height="24" viewBox="0 0 24 24" fill="none" xmlns="http://www.w3.org/2000/svg">
<g clip-path="url(#clip0_0_662)">
<rect width="24" height="24" fill="white"/>
<path d="M22.04 7.82201L16.28 3.79201C14.71 2.69201 12.3 2.75201 10.79 3.92201L5.77999 7.83201C4.77999 8.61201 3.98999 10.212 3.98999 11.472V18.372C3.98999 20.922 6.05999 23.002 8.60999 23.002H19.39C21.94 23.002 24.01 20.932 24.01 18.382V11.602C24.01 10.252 23.14 8.59201 22.04 7.82201ZM14.75 19.002C14.75 19.412 14.41 19.752 14 19.752C13.59 19.752 13.25 19.412 13.25 19.002V16.002C13.25 15.592 13.59 15.252 14 15.252C14.41 15.252 14.75 15.592 14.75 16.002V19.002Z" fill="#FFF586"/>
<path d="M12 17.99V14.99M9.02 2.84004L3.63 7.04004C2.73 7.74004 2 9.23004 2 10.36V17.77C2 20.09 3.89 21.99 6.21 21.99H17.79C20.11 21.99 22 20.09 22 17.78V10.5C22 9.29004 21.19 7.74004 20.2 7.05004L14.02 2.72004C12.62 1.74004 10.37 1.79004 9.02 2.84004Z" stroke="black" stroke-width="1.5" stroke-linecap="round" stroke-linejoin="round"/>
</g>
<defs>
<clipPath id="clip0_0_662">
<rect width="24" height="24" fill="white"/>
</clipPath>
</defs>
</svg>
