<svg width="20" height="20" viewBox="0 0 20 20" fill="none" xmlns="http://www.w3.org/2000/svg">
<g id="vuesax/bold/trash">
<g id="trash">
<path id="Vector" d="M17.5584 4.35842C16.2167 4.22508 14.875 4.12508 13.525 4.05008V4.04175L13.3417 2.95841C13.2167 2.19175 13.0334 1.04175 11.0834 1.04175H8.90005C6.95838 1.04175 6.77505 2.14175 6.64172 2.95008L6.46672 4.01675C5.69172 4.06675 4.91672 4.11675 4.14172 4.19175L2.44172 4.35842C2.09172 4.39175 1.84172 4.70008 1.87505 5.04175C1.90838 5.38342 2.20838 5.63342 2.55838 5.60008L4.25838 5.43342C8.62505 5.00008 13.0251 5.16675 17.4417 5.60842C17.4667 5.60842 17.4834 5.60842 17.5084 5.60842C17.8251 5.60842 18.1 5.36675 18.1334 5.04175C18.1584 4.70008 17.9084 4.39175 17.5584 4.35842Z" fill="white"/>
<path id="Vector_2" d="M16.0254 6.78325C15.8254 6.57492 15.5504 6.45825 15.2671 6.45825H4.73378C4.45044 6.45825 4.16711 6.57492 3.97544 6.78325C3.78378 6.99159 3.67544 7.27492 3.69211 7.56659L4.20878 16.1166C4.30044 17.3833 4.41711 18.9666 7.32544 18.9666H12.6754C15.5838 18.9666 15.7004 17.3916 15.7921 16.1166L16.3088 7.57492C16.3254 7.27492 16.2171 6.99159 16.0254 6.78325ZM11.3838 14.7916H8.60878C8.26711 14.7916 7.98378 14.5083 7.98378 14.1666C7.98378 13.8249 8.26711 13.5416 8.60878 13.5416H11.3838C11.7254 13.5416 12.0088 13.8249 12.0088 14.1666C12.0088 14.5083 11.7254 14.7916 11.3838 14.7916ZM12.0838 11.4583H7.91711C7.57544 11.4583 7.29211 11.1749 7.29211 10.8333C7.29211 10.4916 7.57544 10.2083 7.91711 10.2083H12.0838C12.4254 10.2083 12.7088 10.4916 12.7088 10.8333C12.7088 11.1749 12.4254 11.4583 12.0838 11.4583Z" fill="white"/>
</g>
</g>
</svg>
