<svg width="24" height="24" viewBox="0 0 24 24" fill="none" xmlns="http://www.w3.org/2000/svg">
<path fill-rule="evenodd" clip-rule="evenodd" d="M21.1009 8.00353C21.0442 7.99996 20.9825 7.99998 20.9186 8L20.9026 8.00001H18.3941C16.3264 8.00001 14.5572 9.62757 14.5572 11.75C14.5572 13.8724 16.3264 15.5 18.3941 15.5H20.9026H20.9186C20.9825 15.5 21.0442 15.5001 21.1009 15.4965C21.9408 15.4434 22.6835 14.7862 22.746 13.8682C22.7501 13.808 22.75 13.7431 22.75 13.683V13.6667V9.83334V9.81702C22.75 9.75688 22.7501 9.69199 22.746 9.6318C22.6835 8.71381 21.9408 8.05657 21.1009 8.00353ZM18.1717 12.75C18.704 12.75 19.1355 12.3023 19.1355 11.75C19.1355 11.1977 18.704 10.75 18.1717 10.75C17.6394 10.75 17.2078 11.1977 17.2078 11.75C17.2078 12.3023 17.6394 12.75 18.1717 12.75Z" fill="white"/>
<path d="M20.9029 8.50001L20.9026 8.50001L18.3941 8.50001C16.5827 8.50001 15.0572 9.92313 15.0572 11.75C15.0572 13.5769 16.5827 15 18.3941 15H20.9026H20.9186C20.9871 15 21.0316 14.9999 21.0692 14.9975L21.0693 14.9975C21.6763 14.9591 22.2028 14.4849 22.2471 13.8342C22.2499 13.7943 22.25 13.7474 22.25 13.683V13.6667V9.83334V9.81702C22.25 9.75261 22.2499 9.70572 22.2471 9.66578L22.2471 9.66577C22.2028 9.01511 21.6763 8.54091 21.0695 8.50254L20.9029 8.50001ZM20.9029 8.50001L20.9187 8.5C20.9188 8.5 20.9188 8.5 20.9188 8.5M20.9029 8.50001L20.9188 8.5M20.9188 8.5C20.9189 8.5 20.9189 8.5 20.9189 8.5M20.9188 8.5L20.9189 8.5M20.9189 8.5C20.9864 8.49998 21.0315 8.50016 21.0694 8.50254L20.9189 8.5ZM18.1717 13.25C18.9973 13.25 19.6355 12.5609 19.6355 11.75C19.6355 10.9391 18.9973 10.25 18.1717 10.25C17.3461 10.25 16.7078 10.939 16.7078 11.75C16.7078 12.561 17.3461 13.25 18.1717 13.25Z" stroke="black" stroke-opacity="0.3"/>
<path fill-rule="evenodd" clip-rule="evenodd" d="M20.9179 17C21.067 16.9961 21.1799 17.1342 21.1394 17.2778C20.9387 17.9902 20.62 18.5975 20.1088 19.1088C19.3604 19.8571 18.4114 20.1892 17.239 20.3469C16.0998 20.5 14.6442 20.5 12.8064 20.5H10.6936C8.85583 20.5 7.40019 20.5 6.26098 20.3469C5.08856 20.1892 4.13961 19.8571 3.39124 19.1088C2.64288 18.3604 2.31076 17.4114 2.15314 16.239C1.99997 15.0998 1.99998 13.6442 2 11.8064V11.6936C1.99998 9.85583 1.99997 8.40019 2.15314 7.26098C2.31076 6.08856 2.64288 5.13961 3.39124 4.39124C4.13961 3.64288 5.08856 3.31076 6.26098 3.15314C7.40019 2.99997 8.85582 2.99998 10.6936 3H12.8064C14.6442 2.99998 16.0998 2.99997 17.239 3.15314C18.4114 3.31076 19.3604 3.64288 20.1088 4.39124C20.62 4.90252 20.9386 5.50974 21.1394 6.22218C21.1799 6.36575 21.067 6.50387 20.9179 6.5L18.394 6.50001C15.5574 6.50001 13.0571 8.74091 13.0571 11.75C13.0571 14.7591 15.5574 17 18.394 17H20.9179ZM7 15.5C6.58579 15.5 6.25 15.1642 6.25 14.75V8.75C6.25 8.33579 6.58579 8 7 8C7.41421 8 7.75 8.33579 7.75 8.75V14.75C7.75 15.1642 7.41421 15.5 7 15.5Z" fill="white"/>
<path d="M20.5424 17.5C20.3626 17.9872 20.1106 18.3998 19.7553 18.7552C19.1153 19.3951 18.2895 19.7011 17.1723 19.8514C16.074 19.999 14.6575 20 12.8064 20H10.6936C8.84257 20 7.42599 19.999 6.32763 19.8514L20.5424 17.5ZM20.5424 17.5H18.394C15.3028 17.5 12.5571 15.0563 12.5571 11.75C12.5571 8.44371 15.3028 6.00001 18.394 6.00001L20.5424 6C20.3626 5.51274 20.1106 5.10024 19.7553 4.7448C19.1153 4.10489 18.2895 3.79887 17.1724 3.64868L17.239 3.15314L17.1724 3.64868C16.074 3.50101 14.6575 3.49998 12.8064 3.5H10.6936C8.84252 3.49998 7.42595 3.50101 6.32761 3.64868L6.3276 3.64868C5.21048 3.79887 4.38471 4.10489 3.7448 4.74479C3.74479 4.74479 3.74479 4.74479 3.74479 4.7448M20.5424 17.5L3.39124 19.1088L3.7448 18.7553M3.74479 4.7448L3.39124 4.39124C2.64288 5.13961 2.31076 6.08856 2.15314 7.26098C1.99997 8.40019 1.99998 9.85583 2 11.6936V11.8064C1.99998 13.6442 1.99997 15.0998 2.15314 16.239M3.74479 4.7448C3.10489 5.38471 2.79887 6.21048 2.64868 7.3276L2.64868 7.32761C2.50101 8.42595 2.49998 9.84253 2.5 11.6936V11.8064C2.49998 13.6575 2.50101 15.074 2.64868 16.1724L2.15314 16.239M3.74479 4.7448L2.15314 16.239M2.15314 16.239L2.64868 16.1724C2.79887 17.2895 3.10489 18.1153 3.74478 18.7552C3.74479 18.7552 3.74479 18.7552 3.7448 18.7553M3.7448 18.7553C4.3847 19.3951 5.21046 19.7011 6.32758 19.8514L3.7448 18.7553ZM5.75 14.75C5.75 15.4403 6.30964 16 7 16C7.69036 16 8.25 15.4403 8.25 14.75V8.75C8.25 8.05965 7.69035 7.5 7 7.5C6.30965 7.5 5.75 8.05965 5.75 8.75V14.75Z" stroke="black" stroke-opacity="0.3"/>
</svg>
