<svg width="24" height="24" viewBox="0 0 24 24" fill="none" xmlns="http://www.w3.org/2000/svg">
<path d="M17 10.4799H14.52V11.0099C14.52 11.673 14.2566 12.3089 13.7878 12.7777C13.3189 13.2466 12.683 13.5099 12.02 13.5099C11.357 13.5099 10.7211 13.2466 10.2522 12.7777C9.78339 12.3089 9.52 11.673 9.52 11.0099V10.4799H7C5.80709 10.4818 4.66358 10.9565 3.82006 11.8C2.97655 12.6435 2.50185 13.787 2.5 14.9799V15.9799C2.50185 17.1729 2.97655 18.3164 3.82006 19.1599C4.66358 20.0034 5.80709 20.4781 7 20.4799H17C18.1935 20.4799 19.3381 20.0058 20.182 19.1619C21.0259 18.318 21.5 17.1734 21.5 15.9799V14.9799C21.5 13.7865 21.0259 12.6419 20.182 11.798C19.3381 10.9541 18.1935 10.4799 17 10.4799ZM17 16.2299C16.7532 16.228 16.5125 16.153 16.3083 16.0144C16.104 15.8759 15.9454 15.68 15.8523 15.4514C15.7592 15.2228 15.7359 14.9718 15.7852 14.73C15.8346 14.4882 15.9544 14.2664 16.1296 14.0926C16.3049 13.9188 16.5276 13.8007 16.7698 13.7533C17.012 13.7059 17.2628 13.7312 17.4906 13.8261C17.7185 13.921 17.9131 14.0812 18.05 14.2865C18.1869 14.4919 18.26 14.7332 18.26 14.9799C18.2611 15.1452 18.2292 15.3091 18.1661 15.4619C18.103 15.6147 18.0101 15.7534 17.8927 15.8698C17.7754 15.9862 17.636 16.078 17.4827 16.1399C17.3294 16.2017 17.1653 16.2323 17 16.2299ZM15.73 7.71995C15.5426 7.9062 15.2892 8.01074 15.025 8.01074C14.7608 8.01074 14.5074 7.9062 14.32 7.71995L13.02 6.41995V11.0099C13.02 11.2752 12.9146 11.5295 12.7271 11.7171C12.5396 11.9046 12.2852 12.0099 12.02 12.0099C11.7548 12.0099 11.5004 11.9046 11.3129 11.7171C11.1254 11.5295 11.02 11.2752 11.02 11.0099V6.41995L9.73 7.71995C9.63676 7.81253 9.5262 7.88584 9.40463 7.93569C9.28306 7.98555 9.15286 8.01097 9.02146 8.0105C8.89007 8.01004 8.76005 7.9837 8.63884 7.93299C8.51762 7.88228 8.40758 7.80819 8.315 7.71495C8.22242 7.62171 8.14911 7.51115 8.09925 7.38958C8.0494 7.26801 8.02398 7.13781 8.02444 7.00641C8.02491 6.87502 8.05125 6.745 8.10196 6.62379C8.15267 6.50257 8.22676 6.39253 8.32 6.29995L11.32 3.29995C11.5074 3.1137 11.7608 3.00916 12.025 3.00916C12.2892 3.00916 12.5426 3.1137 12.73 3.29995L15.73 6.29995C15.9174 6.48876 16.0225 6.74396 16.0225 7.00995C16.0225 7.27594 15.9174 7.53114 15.73 7.71995Z" fill="#B6B6B6"/>
</svg>
