<svg width="45" height="45" viewBox="0 0 45 45" fill="none" xmlns="http://www.w3.org/2000/svg">
<mask id="mask0_2_604" style="mask-type:alpha" maskUnits="userSpaceOnUse" x="0" y="0" width="45" height="45">
<path d="M13.0813 14.1656C13.0813 12.3176 13.6293 10.5111 14.656 8.97451C15.6827 7.43794 17.142 6.24033 18.8493 5.53312C20.5567 4.82592 22.4354 4.64088 24.2479 5.00141C26.0604 5.36194 27.7253 6.25185 29.032 7.55859C30.3388 8.86534 31.2287 10.5302 31.5892 12.3427C31.9498 14.1553 31.7647 16.034 31.0575 17.7413C30.3503 19.4487 29.1527 20.908 27.6161 21.9347C26.0795 22.9614 24.273 23.5094 22.425 23.5094C19.9478 23.5064 17.5729 22.521 15.8213 20.7694C14.0696 19.0177 13.0842 16.6428 13.0813 14.1656ZM30.1187 25.5108C29.0642 25.2492 27.9498 25.3947 26.9978 25.9182C25.5986 26.6941 24.025 27.1012 22.425 27.1012C20.8251 27.1012 19.2514 26.6941 17.8522 25.9182C16.9 25.3954 15.7859 25.25 14.7314 25.5108C12.9116 25.9801 11.3009 27.0442 10.1554 28.5341C9.00985 30.024 8.39529 31.854 8.40939 33.7333V35.6226C8.40962 36.8061 8.7278 37.9679 9.33068 38.9864C9.58128 39.3979 9.93415 39.7377 10.355 39.9725C10.7758 40.2072 11.2502 40.3291 11.732 40.3263H33.118C33.6001 40.3291 34.0747 40.207 34.4955 39.9719C34.9164 39.7367 35.2691 39.3965 35.5193 38.9845C36.1227 37.9662 36.441 36.8043 36.4406 35.6207V33.7258C36.4531 31.8478 35.8377 30.0195 34.6924 28.5311C33.547 27.0428 31.9372 25.9798 30.1187 25.5108Z" fill="#C9C9C9"/>
</mask>
<g mask="url(#mask0_2_604)">
<circle cx="22.6063" cy="2.25345" r="37.0224" fill="#F3F3F3"/>
</g>
</svg>
