<svg width="22" height="22" viewBox="0 0 22 22" fill="none" xmlns="http://www.w3.org/2000/svg">
<path d="M18.8742 20.1667C18.8742 16.6192 15.345 13.75 11 13.75C6.65499 13.75 3.12582 16.6192 3.12582 20.1667M11 11C12.2156 11 13.3814 10.5171 14.2409 9.65758C15.1004 8.79803 15.5833 7.63224 15.5833 6.41667C15.5833 5.20109 15.1004 4.0353 14.2409 3.17576C13.3814 2.31622 12.2156 1.83334 11 1.83334C9.78442 1.83334 8.61863 2.31622 7.75908 3.17576C6.89954 4.0353 6.41666 5.20109 6.41666 6.41667C6.41666 7.63224 6.89954 8.79803 7.75908 9.65758C8.61863 10.5171 9.78442 11 11 11Z" stroke="#A7A9B7" stroke-width="1.5" stroke-linecap="round" stroke-linejoin="round"/>
</svg>
